<?xml version="1.0" encoding="utf-8"?>
<!-- Generator: Adobe Illustrator 18.0.0, SVG Export Plug-In . SVG Version: 6.00 Build 0)  -->
<!DOCTYPE svg PUBLIC "-//W3C//DTD SVG 1.0//EN" "http://www.w3.org/TR/2001/REC-SVG-20010904/DTD/svg10.dtd">
<svg version="1.0" id="Layer_1" xmlns="http://www.w3.org/2000/svg" xmlns:xlink="http://www.w3.org/1999/xlink" x="0px" y="0px"
	 viewBox="0 0 96.5 44.9" style="enable-background:new 0 0 96.5 44.9;" xml:space="preserve">
<style type="text/css">
	.st0{fill:url(#SVGID_1_);}
	.st1{fill:url(#SVGID_2_);}
	.st2{fill:url(#SVGID_3_);}
	.st3{fill:url(#SVGID_4_);}
</style>
<g>
	<linearGradient id="SVGID_1_" gradientUnits="userSpaceOnUse" x1="9.8804" y1="-1.2562" x2="9.8804" y2="41.6764">
		<stop  offset="0" style="stop-color:#CFDB00"/>
		<stop  offset="1" style="stop-color:#00A5B5"/>
	</linearGradient>
	<path class="st0" d="M6.5,39.1h12.7v4.9H0v-2.6L13.4,5.9H0.7V0.8h19v2.6L6.5,39.1z"/>
	<linearGradient id="SVGID_2_" gradientUnits="userSpaceOnUse" x1="34.6526" y1="-1.2562" x2="34.6526" y2="41.6764">
		<stop  offset="0" style="stop-color:#CFDB00"/>
		<stop  offset="1" style="stop-color:#00A5B5"/>
	</linearGradient>
	<path class="st1" d="M34.7,44.9c-6.6,0-10.2-4.5-10.2-10.7V10.7C24.4,4.6,28,0,34.7,0c6.6,0,10.2,4.6,10.2,10.7v23.5
		C44.9,40.4,41.3,44.9,34.7,44.9z M39.5,10.1c0-2.9-1.6-5.1-4.8-5.1c-3.2,0-4.8,2.2-4.8,5.1v24.7c0,3,1.6,5.1,4.8,5.1
		c3.2,0,4.8-2.1,4.8-5.1V10.1z"/>
	<linearGradient id="SVGID_3_" gradientUnits="userSpaceOnUse" x1="61.9524" y1="-1.2562" x2="61.9524" y2="41.6764">
		<stop  offset="0" style="stop-color:#CFDB00"/>
		<stop  offset="1" style="stop-color:#00A5B5"/>
	</linearGradient>
	<path class="st2" d="M68.5,44.1l-9-21.5l-2.9-7.3v28.8h-5.1V0.8h4.6l8.5,21.8l2.7,7.3V0.8h5.1v43.3H68.5z"/>
	<linearGradient id="SVGID_4_" gradientUnits="userSpaceOnUse" x1="87.9841" y1="-1.2562" x2="87.9841" y2="41.6764">
		<stop  offset="0" style="stop-color:#CFDB00"/>
		<stop  offset="1" style="stop-color:#00A5B5"/>
	</linearGradient>
	<path class="st3" d="M79.5,44.1V0.8h17v4.9H84.9v13.5h8.4v4.7h-8.4v15.2h11.6v4.9H79.5z"/>
</g>
</svg>
